<svg xmlns="http://www.w3.org/2000/svg" xmlns:xlink="http://www.w3.org/1999/xlink" viewBox="0 0 1920 1080"><defs><style>.cls-1,.cls-11,.cls-15{fill:none;}.cls-2{clip-path:url(#clip-path);}.cls-3{fill:#1d70b7;}.cls-4{clip-path:url(#clip-path-2);}.cls-5{clip-path:url(#clip-path-3);}.cls-6{isolation:isolate;}.cls-7{fill:#8bd2f5;}.cls-14,.cls-18,.cls-8{fill:#ffcf04;}.cls-9{mix-blend-mode:multiply;fill:url(#_10_ppp_30_);}.cls-10{fill:#fff;opacity:0.49;}.cls-11,.cls-12,.cls-13,.cls-14{font-size:149.33px;}.cls-11,.cls-15{stroke:#e84e1b;stroke-linecap:round;stroke-linejoin:round;stroke-width:6px;}.cls-11,.cls-12,.cls-13,.cls-14,.cls-15,.cls-16,.cls-17,.cls-18{font-family:KomikaAxis, Komika Axis;}.cls-12,.cls-16{fill:#e84e1b;}.cls-13,.cls-17{fill:#ffd032;}.cls-15,.cls-16,.cls-17,.cls-18{font-size:166.59px;}</style><clipPath id="clip-path"><rect class="cls-1" y="28.8" width="28.8" height="28.8"/></clipPath><clipPath id="clip-path-2"><rect class="cls-1" width="28.8" height="28.8"/></clipPath><clipPath id="clip-path-3"><rect class="cls-1" y="-28.8" width="28.8" height="28.8"/></clipPath><pattern id="_10_ppp_30_" data-name="10 ppp 30%" width="28.8" height="28.8" patternTransform="translate(-60.57 21.21) rotate(90) scale(1.8)" patternUnits="userSpaceOnUse" viewBox="0 0 28.8 28.8"><rect class="cls-1" width="28.8" height="28.8"/><g class="cls-2"><path class="cls-3" d="M28.8,31a2.16,2.16,0,1,0-2.16-2.16A2.16,2.16,0,0,0,28.8,31Z"/><path class="cls-3" d="M14.4,31a2.16,2.16,0,1,0-2.16-2.16A2.16,2.16,0,0,0,14.4,31Z"/><path class="cls-3" d="M0,31A2.16,2.16,0,0,0,2.16,28.8,2.16,2.16,0,0,0,0,26.64,2.16,2.16,0,0,0,0,31Z"/></g><g class="cls-4"><path class="cls-3" d="M28.8,31a2.16,2.16,0,1,0-2.16-2.16A2.16,2.16,0,0,0,28.8,31Z"/><path class="cls-3" d="M14.4,31a2.16,2.16,0,1,0-2.16-2.16A2.16,2.16,0,0,0,14.4,31Z"/><path class="cls-3" d="M0,31A2.16,2.16,0,0,0,2.16,28.8,2.16,2.16,0,0,0,0,26.64,2.16,2.16,0,0,0,0,31Z"/><path class="cls-3" d="M28.8,16.56a2.16,2.16,0,1,0-2.16-2.16A2.16,2.16,0,0,0,28.8,16.56Z"/><path class="cls-3" d="M14.4,16.56a2.16,2.16,0,1,0-2.16-2.16A2.16,2.16,0,0,0,14.4,16.56Z"/><path class="cls-3" d="M0,16.56A2.16,2.16,0,0,0,2.16,14.4,2.16,2.16,0,0,0,0,12.24a2.16,2.16,0,1,0,0,4.32Z"/><path class="cls-3" d="M28.8,2.16A2.16,2.16,0,0,0,31,0a2.16,2.16,0,0,0-4.32,0A2.16,2.16,0,0,0,28.8,2.16Z"/><path class="cls-3" d="M14.4,2.16A2.16,2.16,0,0,0,16.56,0a2.16,2.16,0,1,0-4.32,0A2.16,2.16,0,0,0,14.4,2.16Z"/><path class="cls-3" d="M0,2.16A2.16,2.16,0,0,0,2.16,0,2.16,2.16,0,0,0,0-2.16,2.16,2.16,0,0,0-2.16,0,2.16,2.16,0,0,0,0,2.16Z"/><path class="cls-3" d="M-14.4,2.16A2.16,2.16,0,0,0-12.24,0,2.16,2.16,0,0,0-14.4-2.16,2.16,2.16,0,0,0-16.56,0,2.16,2.16,0,0,0-14.4,2.16Z"/><path class="cls-3" d="M-14.4,0"/><path class="cls-3" d="M7.2,23.76A2.16,2.16,0,1,0,5,21.6,2.16,2.16,0,0,0,7.2,23.76Z"/><path class="cls-3" d="M21.6,23.76a2.16,2.16,0,1,0-2.16-2.16A2.16,2.16,0,0,0,21.6,23.76Z"/><path class="cls-3" d="M7.2,9.36A2.16,2.16,0,1,0,5,7.2,2.16,2.16,0,0,0,7.2,9.36Z"/><path class="cls-3" d="M21.6,9.36A2.16,2.16,0,1,0,19.44,7.2,2.16,2.16,0,0,0,21.6,9.36Z"/><path class="cls-3" d="M-7.2,9.36A2.16,2.16,0,0,0-5,7.2,2.16,2.16,0,0,0-7.2,5,2.16,2.16,0,0,0-9.36,7.2,2.16,2.16,0,0,0-7.2,9.36Z"/><path class="cls-3" d="M-7.2,7.2"/></g><g class="cls-5"><path class="cls-3" d="M28.8,2.16A2.16,2.16,0,0,0,31,0a2.16,2.16,0,0,0-4.32,0A2.16,2.16,0,0,0,28.8,2.16Z"/><path class="cls-3" d="M14.4,2.16A2.16,2.16,0,0,0,16.56,0a2.16,2.16,0,1,0-4.32,0A2.16,2.16,0,0,0,14.4,2.16Z"/><path class="cls-3" d="M0,2.16A2.16,2.16,0,0,0,2.16,0,2.16,2.16,0,0,0,0-2.16,2.16,2.16,0,0,0-2.16,0,2.16,2.16,0,0,0,0,2.16Z"/></g></pattern></defs><title>rust_super-heróis</title><g class="cls-6"><g id="Camada_1" data-name="Camada 1"><polygon class="cls-7" points="959.16 -837.46 589.66 -837.46 959.16 541.51 959.16 -837.46"/><polygon class="cls-8" points="1328.65 -837.46 959.16 -837.46 959.16 541.51 1328.65 -837.46"/><polygon class="cls-8" points="589.66 -837.46 163 -837.46 959.16 541.51 589.66 -837.46"/><polygon class="cls-8" points="-24 -441.65 -24 -26.12 959.16 541.51 -24 -441.65"/><polygon class="cls-7" points="163 -837.46 -24 -837.46 -24 -441.65 959.16 541.51 163 -837.46"/><polygon class="cls-8" points="1942.31 804.95 1942.31 541.51 959.16 541.51 1942.31 804.95"/><polygon class="cls-7" points="1755.31 -837.46 1328.65 -837.46 959.16 541.51 1755.31 -837.46"/><polygon class="cls-7" points="-24 -26.12 -24 278.07 959.16 541.51 -24 -26.12"/><polygon class="cls-7" points="1942.31 541.51 1942.31 278.08 959.16 541.51 1942.31 541.51"/><polygon class="cls-8" points="1942.31 278.08 1942.31 -26.11 959.16 541.51 1942.31 278.08"/><polygon class="cls-7" points="1942.31 -26.11 1942.31 -441.64 959.16 541.51 1942.31 -26.11"/><polygon class="cls-8" points="1942.31 -441.64 1942.31 -837.46 1755.31 -837.46 959.16 541.51 1942.31 -441.64"/><polygon class="cls-8" points="1328.64 1920.48 1755.3 1920.48 959.16 541.51 1328.64 1920.48"/><polygon class="cls-7" points="1755.3 1920.48 1942.31 1920.48 1942.31 1524.67 959.16 541.51 1755.3 1920.48"/><polygon class="cls-7" points="959.15 1920.48 1328.64 1920.48 959.16 541.51 959.15 1920.48"/><polygon class="cls-8" points="589.65 1920.48 959.15 1920.48 959.16 541.51 589.65 1920.48"/><polygon class="cls-8" points="1942.31 1524.67 1942.31 1109.14 959.16 541.51 1942.31 1524.67"/><polygon class="cls-7" points="959.16 541.51 1942.31 1109.14 1942.31 804.95 959.16 541.51"/><polygon class="cls-7" points="163 1920.48 589.65 1920.48 959.16 541.51 163 1920.48"/><polygon class="cls-8" points="-24 278.07 -24 541.51 959.16 541.51 -24 278.07"/><polygon class="cls-7" points="-24 541.51 -24 804.94 959.16 541.51 -24 541.51"/><polygon class="cls-8" points="-24 804.94 -24 1109.13 959.16 541.51 -24 804.94"/><polygon class="cls-7" points="-24 1109.13 -24 1524.66 959.16 541.51 -24 1109.13"/><polygon class="cls-8" points="-24 1524.66 -24 1920.48 163 1920.48 959.16 541.51 -24 1524.66"/><rect class="cls-9" x="-22.32" y="-840.48" width="1966.32" height="2757.94"/><path id="path3" class="cls-10" d="M1823.35,418.81l-79-37.14q-2.16-10.67-4.56-21.23l56.53-66.37a25.54,25.54,0,0,0-13.27-41.35l-84.46-21q-4.26-10.17-8.75-20.17l42.44-76a25.56,25.56,0,0,0-21.1-38l-87-4.05c-4.07-6.1-8.26-12.07-12.47-18l26.81-82.88a25.45,25.45,0,0,0-4.81-24.4,25.41,25.41,0,0,0-23.27-8.72l-86.31,13c-5.13-5.08-10.33-10.11-15.6-15l10.19-86.7a25.49,25.49,0,0,0-9.5-23,25.53,25.53,0,0,0-24.53-4l-82.1,29.61c-6-4-12.08-7.94-18.21-11.77l-6.94-87A25.44,25.44,0,0,0,1363.71-246a25.52,25.52,0,0,0-24.84.84l-74.6,45c-6.76-2.76-13.53-5.48-20.36-8.07l-23.75-83.8a25.56,25.56,0,0,0-17.56-17.59,25.52,25.52,0,0,0-24.2,5.67L1114-245.4c-7.17-1.4-14.35-2.71-21.6-3.92l-39.6-77.5a25.48,25.48,0,0,0-20.66-13.85,25.59,25.59,0,0,0-22.61,10.29l-51.78,70.19c-7.22,0-14.49.13-21.72.37l-54.11-68.47a25.5,25.5,0,0,0-23-9.52,25.47,25.47,0,0,0-20.18,14.49l-37.13,79c-7.12,1.42-14.21,3-21.25,4.57L714-296.36a25.6,25.6,0,0,0-24.36-4.88,25.51,25.51,0,0,0-17,18.19l-21,84.47c-6.78,2.82-13.48,5.75-20.16,8.73l-76-42.43a25.46,25.46,0,0,0-24.87,0,25.6,25.6,0,0,0-13.11,21.12l-4.09,87q-9.07,6.12-18,12.49l-82.87-26.83a25.46,25.46,0,0,0-24.37,4.83,25.44,25.44,0,0,0-8.73,23.27l13,86.31C387.48-19,382.45-13.78,377.5-8.52L290.82-18.69a25.61,25.61,0,0,0-23,9.49,25.51,25.51,0,0,0-4,24.55L293.4,97.47c-4,6-7.91,12.06-11.74,18.18l-87,6.95a25.54,25.54,0,0,0-19.84,38.64l45,74.62c-2.76,6.73-5.48,13.5-8.07,20.36l-83.78,23.72A25.54,25.54,0,0,0,116,321.71l58.58,64.34q-2.1,10.77-3.93,21.63l-77.5,39.6a25.54,25.54,0,0,0-3.53,43.29l70.16,51.78c0,7.22.15,14.48.37,21.71L91.71,618.18a25.52,25.52,0,0,0,5,43.12l79,37.14q2.15,10.66,4.57,21.23l-56.55,66.39a25.53,25.53,0,0,0,13.27,41.34l84.47,21c2.82,6.78,5.76,13.5,8.75,20.17l-42.43,76a25.53,25.53,0,0,0,21.11,38l87,4.06c4.08,6.09,8.24,12.07,12.49,18l-26.83,82.85a25.54,25.54,0,0,0,28.1,33.12l86.27-13c5.16,5.12,10.34,10.12,15.6,15.07l-10.15,86.71a25.53,25.53,0,0,0,34,27l82.1-29.6c6,4,12.1,7.93,18.22,11.74l7,87a25.5,25.5,0,0,0,38.62,19.83l74.6-45c6.75,2.79,13.52,5.48,20.36,8.08l23.75,83.74a25.55,25.55,0,0,0,41.77,12L806,1325.42c7.18,1.4,14.38,2.75,21.63,3.95l39.6,77.47a25.53,25.53,0,0,0,43.27,3.53l51.8-70.16c7.22,0,14.48-.13,21.73-.32l54.11,68.45a25.53,25.53,0,0,0,43.13-5l37.14-78.95c7.11-1.47,14.19-3,21.22-4.62l66.38,56.55a25.53,25.53,0,0,0,41.33-13.27l21-84.44c6.78-2.82,13.5-5.77,20.17-8.76l76,42.46a25.55,25.55,0,0,0,38-21.13l4.09-87c6.06-4.08,12-8.29,18-12.49l82.87,26.81a25.5,25.5,0,0,0,33.11-28.08l-13-86.32c5.08-5.13,10.12-10.28,15-15.57l86.68,10.16a25.52,25.52,0,0,0,27-34l-29.59-82.14c4-6,7.92-12.06,11.73-18.21l87-6.94a25.52,25.52,0,0,0,19.82-38.64l-44.94-74.59c2.77-6.76,5.48-13.53,8-20.39l83.78-23.72A25.52,25.52,0,0,0,1804,758.42l-58.58-64.35c1.38-7.18,2.71-14.39,3.93-21.63l77.48-39.6a25.53,25.53,0,0,0,3.54-43.27l-70.15-51.81c0-7.22-.17-14.48-.37-21.71l68.45-54.11a25.54,25.54,0,0,0-5-43.13ZM1400.44,1087a52.56,52.56,0,1,1,57.29-47.25A52.58,52.58,0,0,1,1400.44,1087Zm-44.55-166.5a47.83,47.83,0,0,0-52.23,43.06l-12.11,125.13A647.83,647.83,0,0,1,756,1147.79l-40.21-119.1a47.82,47.82,0,0,0-60.63-30.06L550,1034.19a643.53,643.53,0,0,1-63.31-59.28l524.56-60.4c5.94-.68,9.77-2.21,9.15-7.61L999,721.34c-.62-5.4-4.71-6-10.64-5.33L835,733.67,821.43,616.05,987.36,597c15.15-1.75,81.48-5,112.22,76.73,9.57,25.13,33.74,107.65,46.74,133.47,13.35,29.09,60.46,84.85,103.25,79.93L1511,857a53.64,53.64,0,0,0,9.37-2,648.53,648.53,0,0,1-51.42,76.59l-113-11ZM649.59,1170.9a52.57,52.57,0,1,1,32.88-66.6A52.46,52.46,0,0,1,649.59,1170.9Zm-291.9-784a52.49,52.49,0,1,1-71.85-18.65A52.58,52.58,0,0,1,357.69,386.89Zm-44.46,152,106.55-62.83a47.92,47.92,0,0,0,16.94-65.58l-29.15-49.64,91-10.48,47.2,410L362.22,781.54a647,647,0,0,1-44.73-173.25A654.61,654.61,0,0,1,313.23,538.91Zm488.23-96.56L787.55,321.49l216.62-24.94c11.19-1.28,80.5,3.84,86.33,54.55,4.85,42.1-45.43,63.19-88.2,68.11L801.46,442.34Zm799.77,18.15q2.77,24,3.73,47.85l-65.86,7.59c-6.59.76-8.74,5.39-8,11.85l3.48,30.24c8.2,71.19-30.16,91.29-64.88,99.28-33.06,7.64-72.25-5.89-79.19-25.86-32.56-108.87-68.22-128.81-124.94-163.84,59.81-48.41,120-116.59,110.68-197.51C1366.19,182.72,1300,134.58,1256,112.3c-61.63-31.17-125.92-31.43-143-29.46L431.91,161.25a645.25,645.25,0,0,1,335.77-244l90,75A47.79,47.79,0,0,0,925-14L1005-110.23C1197.22-96.86,1370.06,2,1480.41,152.14l-45.51,146a48,48,0,0,0,31.42,60l124.45,39q6.7,31.17,10.46,63.42ZM839.74-163.65a52.43,52.43,0,0,1,73.9-6.79,52.61,52.61,0,0,1,6.77,74,52.4,52.4,0,0,1-73.9,6.77A52.62,52.62,0,0,1,839.74-163.65Zm666.79,420.84A52.48,52.48,0,1,1,1541,323.05,52.42,52.42,0,0,1,1506.53,257.19Z"/><text class="cls-11" transform="matrix(0.99, -0.15, 0.15, 0.99, 268.79, 578.9)">super-heróis DA</text><text class="cls-12" transform="matrix(0.99, -0.15, 0.15, 0.99, 268.79, 578.9)">super-heróis DA</text><text class="cls-11" transform="matrix(0.99, -0.15, 0.15, 0.99, 242.99, 570.41)">super-heróis DA</text><text class="cls-13" transform="matrix(0.99, -0.15, 0.15, 0.99, 242.99, 570.41)">super-heróis DA</text><text class="cls-14" transform="matrix(0.99, -0.15, 0.15, 0.99, 242.99, 570.41)">super-heróis DA</text><text class="cls-15" transform="matrix(0.99, -0.15, 0.15, 0.99, 152.09, 852.12)">COMUNIDADE RUST!</text><text class="cls-16" transform="matrix(0.99, -0.15, 0.15, 0.99, 152.09, 852.12)">COMUNIDADE RUST!</text><text class="cls-15" transform="matrix(0.99, -0.15, 0.15, 0.99, 123.32, 842.65)">COMUNIDADE RUST!</text><text class="cls-17" transform="matrix(0.99, -0.15, 0.15, 0.99, 123.32, 842.65)">COMUNIDADE RUST!</text><text class="cls-18" transform="matrix(0.99, -0.15, 0.15, 0.99, 123.32, 842.65)">COMUNIDADE RUST!</text></g></g></svg>