<?xml version="1.0" encoding="utf-8"?>
<!-- Generator: Adobe Illustrator 22.0.0, SVG Export Plug-In . SVG Version: 6.00 Build 0)  -->
<svg version="1.1" id="Camada_1" xmlns="http://www.w3.org/2000/svg" xmlns:xlink="http://www.w3.org/1999/xlink" x="0px" y="0px"
	 viewBox="0 0 127.6 127.6" style="enable-background:new 0 0 127.6 127.6;" xml:space="preserve">
<style type="text/css">
	.st0{fill:#2F5FAA;}
	.st1{fill:none;stroke:#FFFFFF;stroke-width:0.25;stroke-miterlimit:10;}
	.st2{fill:#8F1F18;}
	.st3{fill:#E3381B;}
	.st4{fill:#E5381B;}
	.st5{fill:#020203;}
	.st6{fill:#FFFFFF;}
</style>
<g id="hackground">
	<rect x="-0.9" y="-0.8" class="st0" width="129.3" height="129.2"/>
</g>
<g id="frame">
	<circle class="st1" cx="63.8" cy="63.8" r="63.4"/>
</g>
<g>
	<g>
		<path class="st2" d="M63.3,45.7c-13.1,0-25,1.6-33.9,4.1v22c8.9,2.6,20.8,4.1,33.9,4.1c15,0,28.4-2,37.4-5.3V51
			C91.7,47.8,78.3,45.7,63.3,45.7z"/>
		<path class="st2" d="M101.2,65.5c-0.4-1.1-0.4-2.5-0.1-3.7c0.5-2.3,2.2-3.6,3.7-2.9c0.4,0.1,0.7,0.4,1,0.8c0,0,0,0,0.1,0
			c0,0,4.4,5.3,0.3,11.6c-0.1,0.4-7.6,9.1-9.4,9.4C95.6,80.9,98.2,71.8,101.2,65.5z"/>
		<path class="st2" d="M28.4,64.4c0.5-1,0.7-2.3,0.4-3.7c-0.5-2.5-2.3-4.1-4.1-3.7c-0.4,0.1-0.8,0.3-1.2,0.5c0,0,0,0-0.1,0
			c0,0-5.6,4.2-1.2,11.3c0.1,0.4,8.3,10.8,10.4,11.5C34,81.1,31.6,71.4,28.4,64.4z"/>
		<path class="st3" d="M20.7,65.1L20.7,65.1L20.7,65.1z"/>
		<path class="st4" d="M109.8,57.6c-0.1-0.3-0.1-0.5-0.3-1l3-4.4c0.3-0.4,0.4-1.1,0.1-1.5c-0.1-0.5-0.7-0.8-1.2-1l-5.2-0.8
			c-0.1-0.4-0.4-0.8-0.7-1.2l2.2-4.9c0.3-0.5,0.1-1.1-0.1-1.5s-0.8-0.7-1.4-0.7l-5.2,0.1c-0.3-0.4-0.5-0.7-0.8-1.1l1.2-5.3
			c0.1-0.5,0-1.1-0.4-1.5s-1-0.5-1.5-0.4l-5.1,1.2c-0.3-0.3-0.7-0.5-1-0.8l0.1-5.5c0-0.5-0.3-1.1-0.7-1.4c-0.4-0.3-1-0.4-1.5-0.1
			l-4.8,2.3c-0.4-0.3-0.8-0.4-1.1-0.7l-0.8-5.3c-0.1-0.5-0.4-1-1-1.2c-0.5-0.3-1.1-0.1-1.5,0.1l-4.1,3c-0.4-0.1-0.8-0.3-1.2-0.4
			l-1.9-5.2c-0.1-0.5-0.7-1-1.1-1c-0.5-0.1-1.1,0.1-1.4,0.5l-3.6,4c-0.4,0-0.8-0.1-1.4-0.1L65,17.3c-0.3-0.4-0.8-0.8-1.4-0.8
			c-0.5,0-1.1,0.3-1.4,0.8L59.6,22c-0.4,0-0.8,0.1-1.4,0.1l-3.6-4c-0.4-0.4-1-0.5-1.4-0.5c-0.5,0.1-1,0.5-1.1,1l-1.8,5.1
			c-0.4,0.1-0.8,0.3-1.2,0.4L45,20.9c-0.4-0.3-1-0.4-1.5-0.1c-0.5,0.3-0.8,0.7-1,1.2l-0.8,5.3c-0.4,0.3-0.8,0.4-1.1,0.7l-4.8-2.3
			c-0.5-0.1-1.2-0.1-1.6,0.3c-0.4,0.3-0.7,0.8-0.7,1.4l0.1,5.5c-0.3,0.3-0.7,0.5-1,0.8l-5.1-1.2c-0.5-0.1-1.1,0-1.5,0.4
			c-0.4,0.4-0.5,1-0.4,1.5l1.2,5.3c-0.3,0.4-0.5,0.7-0.8,1.1l-5.2-0.1c-0.5,0-1.1,0.3-1.4,0.7c-0.3,0.4-0.3,1.1-0.1,1.5l2.2,4.9
			c-0.3,0.4-0.4,0.8-0.7,1.2l-5.2,0.8c-0.5,0.1-1,0.4-1.2,1c-0.1,0.5-0.1,1.1,0.1,1.5l3,4.4c0,0.1,0,0.1-0.1,0.3l-1.6,1.8l4.5,6.4
			c0,0,43.3,19.9,83.4,0.3C108.7,64.6,109.8,57.6,109.8,57.6z"/>
		<g>
			<path class="st5" d="M71.5,54c0,0,4.8-5.2,9.6,0c0,0,3.8,7,0,10.5c0,0-6.1,4.9-9.6,0C71.5,64.6,67.4,60.6,71.5,54z"/>
			<path class="st6" d="M77.1,56c0,2-1.2,3.7-2.7,3.7c-1.5,0-2.7-1.6-2.7-3.7c0-2,1.2-3.7,2.7-3.7C75.8,52.3,77.1,53.9,77.1,56z"/>
		</g>
		<g>
			<path class="st5" d="M50.2,52.5c0,0,8.2-3.7,10.5,4.5c0,0,2.3,9.4-6.7,10C53.8,67,42.2,64.8,50.2,52.5z"/>
			<path class="st6" d="M54.3,56.1c0,2-1.2,3.8-2.7,3.8s-2.7-1.8-2.7-3.8s1.2-3.8,2.7-3.8C53,52.3,54.3,53.9,54.3,56.1z"/>
		</g>
		<path class="st4" d="M22,66.2c1.1-1.2,3.7-2.7,3.6-4.6c-0.4-3.3-3.1-5.7-6.1-5.5c-0.8,0.1-1.5,0.3-2,0.7h-0.1
			c0,0-10.4,5.1-4.4,15.2c0,0.5,11.7,15.4,15,16.7C30,89.4,25.7,75.9,22,66.2z"/>
		<path class="st4" d="M105.9,65.8c-1.2-1.1-4.6-2-4.6-4c-0.1-3.4,2.2-6.1,5.3-6.3c0.8,0,1.5,0.1,2.2,0.4h0.1c0,0,10.9,3.4,6.7,14.3
			c0,0.5-9.3,17.1-12.4,18.7C101.1,90,103.6,75.9,105.9,65.8z"/>
		<path class="st4" d="M30,65.8c0,0-0.1,13.7,13.2,16.7l2.7-5.6c0,0-9.7,1-10.5-11.1H30z"/>
		<path class="st4" d="M98.2,65.8c0,0,0.1,13.7-13.2,16.7l-2.7-5.6c0,0,9.7,1,10.5-11.1H98.2z"/>
		<path class="st4" d="M88.5,79.7c-2-4.9-8.5-6.8-14.5-4.4c-5.3,2.2-8.5,7.1-7.8,11.5c4.2,0,8.6-0.3,13-1c0,0-2.6,4.1-6.4,7.8
			c2.6,0.7,5.5,0.4,8.3-0.7C87.3,90.6,90.6,84.6,88.5,79.7z"/>
		<path class="st4" d="M51.3,85.7c0,0,5.5,0.7,13,1c0.7-4.8-2.9-9.7-8.6-11.6c-6.3-2.2-12.8,0.3-14.6,5.5
			c-1.8,5.1,1.9,11.1,8.3,13.1c2.7,1,5.6,1,8.1,0.3C53.7,90.2,51.3,85.7,51.3,85.7z"/>
	</g>
	<g>
		<path class="st6" d="M34.8,102.7l-0.3,1.4c-0.2,0-0.3,0-0.5,0c-0.8,0-1.1,0.5-1.4,1.5v3.2h-1.4v-6h1.2l0.2,1.2
			c0.3-0.9,0.9-1.4,1.5-1.4C34.3,102.7,34.6,102.7,34.8,102.7z"/>
		<path class="st6" d="M40.4,108.8h-1.2L39,108c-0.5,0.6-1.1,1.1-1.8,1.1c-1.1,0-1.7-0.8-1.7-1.8V103h1.4v4c0,0.8,0.3,0.9,0.8,0.9
			c0.5,0,0.9-0.3,1.2-0.9v-4.1h1.4v6H40.4z"/>
		<path class="st6" d="M46.1,103.3l-0.5,0.9c-0.5-0.3-0.9-0.5-1.5-0.5c-0.6,0-0.9,0.3-0.9,0.6c0,0.5,0.3,0.6,1.2,0.9
			c1.2,0.3,1.8,0.8,1.8,1.8c0,1.2-1.2,1.8-2.4,1.8c-1.1,0-1.8-0.3-2.4-0.9l0.8-0.8c0.5,0.3,1.1,0.6,1.7,0.6c0.6,0,1.1-0.3,1.1-0.8
			s-0.3-0.6-1.4-0.9c-1.2-0.3-1.8-0.9-1.8-1.8c0-0.9,0.9-1.7,2.3-1.7C44.8,102.7,45.6,103,46.1,103.3z"/>
		<path class="st6" d="M50.8,108.5c-0.5,0.3-0.9,0.5-1.5,0.5c-1.2,0-1.8-0.6-1.8-2v-3.1h-0.9v-1.1h0.9v-1.4l1.4-0.2v1.5h1.4l0,1.1
			H49v3.1c0,0.6,0.2,0.8,0.6,0.8c0.2,0,0.5,0,0.8-0.2L50.8,108.5z"/>
		<path class="st6" d="M50.9,104.7h3.4v1.2h-3.4V104.7z"/>
		<path class="st6" d="M55.7,107.4v-7l1.4-0.2v7c0,0.3,0.2,0.5,0.3,0.5c0.2,0,0.3,0,0.3,0l0.3,1.1c-0.3,0.2-0.6,0.2-0.9,0.2
			C56.3,108.9,55.7,108.3,55.7,107.4z"/>
		<path class="st6" d="M63.9,108l-0.3,0.9c-0.6,0-1.1-0.3-1.4-0.9c-0.5,0.6-1.1,0.9-1.8,0.9c-1.2,0-2-0.8-2-1.8c0-1.2,0.9-2,2.7-2
			h0.8v-0.3c0-0.8-0.3-1.1-1.1-1.1c-0.5,0-0.9,0.2-1.5,0.3l-0.3-0.9c0.8-0.3,1.5-0.5,2.1-0.5c1.5,0,2.3,0.8,2.3,2v2.4
			C63.5,107.7,63.6,107.9,63.9,108z M61.9,107.1v-1.2h-0.6c-0.9,0-1.4,0.3-1.4,1.1c0,0.6,0.3,0.9,0.9,0.9
			C61.3,107.9,61.8,107.6,61.9,107.1z"/>
		<path class="st6" d="M70,104.5v4.3h-1.5v-4.1c0-0.8-0.3-0.9-0.8-0.9c-0.5,0-0.9,0.3-1.2,0.9v4.1h-1.4v-6h1.2l0.2,0.8
			c0.5-0.6,1.1-0.9,1.8-0.9C69.4,102.7,70,103.3,70,104.5z"/>
		<path class="st6" d="M76.9,103.1c-0.5,0.2-1.1,0.2-1.7,0.2c0.8,0.3,1.1,0.8,1.1,1.5c0,1.2-0.9,2-2.4,2c-0.3,0-0.5,0-0.8-0.2
			c-0.2,0.2-0.3,0.3-0.3,0.5c0,0.2,0.2,0.5,0.8,0.5h0.9c1.4,0,2.1,0.8,2.1,1.7c0,1.2-1.1,1.8-2.9,1.8c-2.1,0-2.7-0.6-2.7-1.8h1.2
			c0,0.6,0.3,0.9,1.4,0.9c1.2,0,1.5-0.3,1.5-0.8s-0.3-0.8-1.1-0.8h-0.9c-1.2,0-1.7-0.5-1.7-1.2c0-0.5,0.3-0.8,0.8-1.1
			c-0.8-0.5-1.1-0.9-1.1-1.7c0-1.2,1.1-2.1,2.4-2.1c1.4,0,2-0.3,2.7-0.6L76.9,103.1z M72.8,104.8c0,0.8,0.5,1.2,1.1,1.2
			c0.6,0,1.1-0.5,1.1-1.2s-0.3-1.1-1.1-1.1C73.1,103.6,72.8,104,72.8,104.8z"/>
		<path class="st6" d="M79.1,108c0,0.5-0.5,0.9-0.9,0.9c-0.5,0-0.9-0.5-0.9-0.9c0-0.5,0.5-0.9,0.9-0.9
			C78.7,107.1,79.1,107.6,79.1,108z"/>
		<path class="st6" d="M85.5,105.7c0,1.8-1.1,3.2-2.7,3.2s-2.7-1.2-2.7-3.2c0-1.8,1.1-3.2,2.7-3.2C84.6,102.7,85.5,103.9,85.5,105.7
			z M81.5,105.7c0,1.4,0.5,2,1.2,2c0.9,0,1.2-0.6,1.2-2c0-1.4-0.5-2-1.2-2C82,103.7,81.5,104.3,81.5,105.7z"/>
		<path class="st6" d="M90.4,102.7l-0.3,1.4c-0.2,0-0.3,0-0.5,0c-0.8,0-1.1,0.5-1.4,1.5v3.2h-1.4v-6h1.2l0.2,1.2
			c0.3-0.9,0.9-1.4,1.5-1.4C90.1,102.7,90.2,102.7,90.4,102.7z"/>
		<path class="st6" d="M96.3,103.1c-0.5,0.2-1.1,0.2-1.7,0.2c0.8,0.3,1.1,0.8,1.1,1.5c0,1.2-0.9,2-2.4,2c-0.3,0-0.5,0-0.8-0.2
			c-0.2,0.2-0.3,0.3-0.3,0.5c0,0.2,0.2,0.5,0.8,0.5h0.9c1.4,0,2.1,0.8,2.1,1.7c0,1.2-1.1,1.8-2.9,1.8c-2.1,0-2.7-0.6-2.7-1.8h1.2
			c0,0.6,0.3,0.9,1.4,0.9c1.2,0,1.5-0.3,1.5-0.8s-0.3-0.8-1.1-0.8h-0.9c-1.2,0-1.7-0.5-1.7-1.2c0-0.5,0.3-0.8,0.8-1.1
			c-0.8-0.5-1.1-0.9-1.1-1.7c0-1.2,1.1-2.1,2.4-2.1c1.4,0,2-0.3,2.7-0.6L96.3,103.1z M92.2,104.8c0,0.8,0.5,1.2,1.1,1.2
			c0.6,0,1.1-0.5,1.1-1.2s-0.3-1.1-1.1-1.1C92.5,103.6,92.2,104,92.2,104.8z"/>
	</g>
</g>
</svg>
