<?xml version="1.0" encoding="utf-8"?>
<!-- Generator: Adobe Illustrator 22.0.1, SVG Export Plug-In . SVG Version: 6.00 Build 0)  -->
<svg version="1.1" id="Layer_1" xmlns="http://www.w3.org/2000/svg" xmlns:xlink="http://www.w3.org/1999/xlink" x="0px" y="0px"
	 viewBox="0 0 500 500" style="enable-background:new 0 0 500 500;" xml:space="preserve">
<style type="text/css">
	.st0{fill:#FFFFFF;}
</style>
<g id="Camada_1">
	<rect x="-2" y="-5.5" width="504" height="511"/>
</g>
<g id="Camada_2">
	<path class="st0" d="M237.1,92.5c0-6.8,5.5-12.2,12.2-12.2c6.8,0,12.2,5.5,12.2,12.2c0,6.8-5.5,12.2-12.2,12.2
		C242.6,104.8,237.1,99.3,237.1,92.5 M91,203.4c0-6.8,5.5-12.2,12.3-12.2s12.2,5.5,12.2,12.2c0,6.8-5.5,12.2-12.3,12.2
		C96.5,215.7,91,210.2,91,203.4 M383.2,204c0-6.8,5.5-12.2,12.2-12.2c6.8,0,12.2,5.5,12.2,12.2c0,6.8-5.5,12.2-12.2,12.2
		C388.7,216.2,383.2,210.7,383.2,204 M126.5,220.8c5.6-2.5,8.2-9.1,5.7-14.8l-5.4-12.3h21.4V290H105c-5.3-18.7-7-38.2-4.9-57.6
		L126.5,220.8z M215.9,223.1v-28.4h50.9c2.6,0,18.6,3,18.6,14.9c0,9.9-12.2,13.4-22.3,13.4L215.9,223.1z M146.4,376
		c0-6.8,5.5-12.2,12.3-12.2s12.2,5.5,12.2,12.2c0,6.8-5.5,12.2-12.3,12.2C151.9,388.2,146.4,382.7,146.4,376 M327.8,376.5
		c0-6.8,5.5-12.2,12.2-12.2s12.2,5.5,12.2,12.2s-5.5,12.2-12.2,12.2S327.8,383.3,327.8,376.5 M331.6,348.8c-6-1.3-12,2.5-13.3,8.6
		l-6.1,28.7c-40,18.1-85.9,17.9-125.7-0.6l-6.1-28.7c-1.3-6-7.2-9.9-13.3-8.6l-25.3,5.4c-4.7-4.8-9.1-10-13.1-15.4h123.2
		c1.4,0,2.3-0.3,2.3-1.5v-43.6c0-1.3-0.9-1.5-2.3-1.5h-36V264h39c3.6,0,19,1,24,20.8c1.5,6.1,4.9,25.9,7.3,32.2
		c2.3,7.1,11.7,21.3,21.8,21.3h63.6c-4.3,5.7-8.9,11.1-14,16.2L331.6,348.8z M400,233.7c0.9,8.7,1,17.5,0.3,26.2h-15.5
		c-1.5,0-2.2,1-2.2,2.5v7.1c0,16.7-9.4,20.4-17.7,21.3c-7.9,0.9-16.6-3.3-17.7-8.1c-4.6-26.1-12.4-31.7-24.6-41.3
		c15.2-9.6,30.9-23.8,30.9-42.8c0-20.5-14.1-33.5-23.7-39.8c-13.5-8.9-28.4-10.6-32.4-10.6h-160c22.1-24.7,51.8-41.4,84.3-47.6
		l18.9,19.8c4.3,4.5,11.3,4.6,15.8,0.4l21.1-20.2c43.5,8.2,81.3,35,103.2,73.5l-14.4,32.6c-2.5,5.6,0.1,12.2,5.7,14.8L400,233.7z
		 M436.1,234.2l-0.5-5l14.9-13.9c3-2.8,1.9-8.5-2-9.9l-19-7.1l-1.5-4.9l11.9-16.5c2.4-3.3,0.2-8.7-3.9-9.4l-20.1-3.3l-2.4-4.5
		l8.4-18.5c1.7-3.8-1.5-8.6-5.6-8.4l-20.4,0.7l-3.2-3.9l4.7-19.8c0.9-4-3.1-8.1-7.2-7.2l-19.8,4.7l-3.9-3.2l0.7-20.4
		c0.2-4.1-4.7-7.3-8.4-5.6l-18.5,8.4l-4.5-2.4L332.5,64c-0.7-4.1-6-6.3-9.4-3.9L306.7,72l-4.9-1.5l-7.1-19c-1.4-3.9-7.1-5-9.9-2
		l-13.9,14.9l-5-0.5l-10.7-17.3c-2.2-3.5-8-3.5-10.1,0l-10.7,17.3l-5,0.5l-13.9-14.9c-2.8-3-8.5-1.9-9.9,2l-7.1,19l-4.9,1.5
		l-16.5-11.9c-3.3-2.4-8.7-0.2-9.4,3.9l-3.3,20.1l-4.5,2.4l-18.5-8.4c-3.8-1.7-8.6,1.5-8.4,5.6l0.7,20.4l-3.9,3.2l-19.8-4.7
		c-4-0.9-8.1,3.1-7.2,7.2l4.7,19.8l-3.2,3.9l-20.4-0.7c-4.1-0.1-7.3,4.7-5.6,8.4l8.4,18.5l-2.4,4.5l-20.1,3.3
		c-4.1,0.7-6.3,6-3.9,9.4L72,193.3l-1.5,4.9l-19,7.1c-3.9,1.4-5,7.1-2,9.9l14.9,13.9l-0.5,5l-17.3,10.7c-3.5,2.2-3.5,8,0,10.1
		l17.3,10.7l0.5,5l-14.9,13.9c-3,2.8-1.9,8.5,2,9.9l19,7.1l1.5,4.9l-11.9,16.5c-2.4,3.4-0.2,8.7,3.9,9.4l20.1,3.3l2.4,4.5l-8.4,18.5
		c-1.7,3.8,1.5,8.6,5.6,8.4l20.3-0.7l3.2,3.9l-4.7,19.8c-0.9,4,3.1,8.1,7.2,7.2l19.8-4.7l3.9,3.2l-0.7,20.4
		c-0.2,4.1,4.7,7.3,8.4,5.6l18.5-8.4l4.5,2.4l3.3,20c0.7,4.1,6,6.3,9.4,3.9l16.5-11.9l4.9,1.5l7.1,19c1.4,3.9,7.1,5,9.9,2l13.9-14.9
		l5,0.5l10.7,17.3c2.2,3.5,8,3.5,10.1,0l10.7-17.3l5-0.5l13.9,14.9c2.8,3,8.5,1.9,9.9-2l7.1-19l4.9-1.5l16.5,11.9
		c3.3,2.4,8.7,0.2,9.4-3.9l3.3-20l4.5-2.4l18.5,8.4c3.8,1.7,8.6-1.5,8.4-5.6l-0.7-20.4l3.9-3.2l19.8,4.7c4,0.9,8.1-3.1,7.2-7.2
		l-4.7-19.8l3.2-3.9l20.4,0.7c4.1,0.2,7.4-4.7,5.6-8.4l-8.4-18.5l2.4-4.5l20.1-3.3c4.1-0.7,6.3-6,3.9-9.4L428,306.7l1.5-4.9l19-7.1
		c3.9-1.4,5-7.1,2-9.9l-14.9-13.9l0.5-5l17.3-10.7c3.5-2.2,3.5-8,0-10.1L436.1,234.2z"/>
</g>
</svg>
