<?xml version="1.0" encoding="utf-8"?>
<!-- Generator: Adobe Illustrator 22.0.1, SVG Export Plug-In . SVG Version: 6.00 Build 0)  -->
<svg version="1.1" id="Layer_1" xmlns="http://www.w3.org/2000/svg" xmlns:xlink="http://www.w3.org/1999/xlink" x="0px" y="0px"
	 viewBox="0 0 144 144" style="enable-background:new 0 0 144 144;" xml:space="preserve">
<style type="text/css">
	.st0{fill:#FFFFFF;}
</style>
<path class="st0" d="M139.7,70.3l-5.8-3.6c0-0.6-0.1-1.1-0.2-1.7l5-4.6c0.5-0.5,0.7-1.2,0.6-1.8c-0.1-0.7-0.6-1.2-1.3-1.5l-6.3-2.4
	c-0.2-0.5-0.3-1.1-0.5-1.6l4-5.5c0.4-0.6,0.5-1.3,0.2-1.9c-0.3-0.6-0.8-1.1-1.5-1.2l-6.7-1.1c-0.3-0.5-0.5-1-0.8-1.5l2.8-6.2
	c0.3-0.6,0.2-1.4-0.2-1.9c-0.4-0.6-1-0.9-1.7-0.9l-6.8,0.2c-0.4-0.4-0.7-0.9-1.1-1.3l1.6-6.6c0.2-0.7,0-1.4-0.5-1.9
	c-0.5-0.5-1.2-0.7-1.9-0.5l-6.6,1.6c-0.4-0.4-0.9-0.7-1.3-1.1l0.2-6.8c0-0.7-0.3-1.3-0.9-1.7c-0.6-0.4-1.3-0.4-1.9-0.2l-6.2,2.8
	c-0.5-0.3-1-0.5-1.5-0.8l-1.1-6.7c-0.1-0.7-0.6-1.3-1.2-1.5c-0.6-0.3-1.4-0.2-1.9,0.2l-5.5,4c-0.5-0.2-1.1-0.3-1.6-0.5l-2.4-6.3
	c-0.2-0.6-0.8-1.1-1.5-1.3c-0.7-0.1-1.4,0.1-1.8,0.6l-4.6,5c-0.6-0.1-1.1-0.1-1.7-0.2l-3.6-5.8c-0.4-0.6-1-0.9-1.7-0.9
	s-1.3,0.4-1.7,0.9L66.7,10c-0.6,0-1.1,0.1-1.7,0.2l-4.6-5c-0.5-0.5-1.2-0.7-1.8-0.6c-0.7,0.1-1.2,0.6-1.5,1.3l-2.4,6.3
	c-0.5,0.2-1.1,0.3-1.6,0.5l-5.5-4c-0.6-0.4-1.3-0.5-1.9-0.2c-0.6,0.3-1.1,0.8-1.2,1.5l-1.1,6.7c-0.5,0.3-1,0.5-1.5,0.8l-6.2-2.8
	c-0.6-0.3-1.4-0.2-1.9,0.2c-0.6,0.4-0.9,1-0.9,1.7l0.2,6.8c-0.4,0.4-0.9,0.7-1.3,1.1l-6.6-1.6c-0.7-0.2-1.4,0-1.9,0.5
	c-0.5,0.5-0.7,1.2-0.5,1.9l1.6,6.6c-0.4,0.4-0.7,0.9-1.1,1.3L16.6,33c-0.7,0-1.3,0.3-1.7,0.9c-0.4,0.6-0.4,1.3-0.2,1.9l2.8,6.2
	c-0.3,0.5-0.5,1-0.8,1.5l-6.7,1.1c-0.7,0.1-1.3,0.6-1.5,1.2c-0.3,0.6-0.2,1.4,0.2,1.9l4,5.5c-0.2,0.5-0.3,1.1-0.5,1.6l-6.3,2.4
	c-0.6,0.2-1.1,0.8-1.3,1.5c-0.1,0.7,0.1,1.4,0.6,1.8l5,4.6c-0.1,0.6-0.1,1.1-0.2,1.7l-5.8,3.6c-0.6,0.4-0.9,1-0.9,1.7
	s0.4,1.3,0.9,1.7l5.8,3.6c0,0.6,0.1,1.1,0.2,1.7l-5,4.6c-0.5,0.5-0.7,1.2-0.6,1.8c0.1,0.7,0.6,1.2,1.3,1.5l6.3,2.4
	c0.2,0.5,0.3,1.1,0.5,1.6l-4,5.5c-0.4,0.6-0.5,1.3-0.2,1.9c0.3,0.6,0.8,1.1,1.5,1.2l6.7,1.1c0.3,0.5,0.5,1,0.8,1.5l-2.8,6.2
	c-0.3,0.6-0.2,1.4,0.2,1.9c0.4,0.6,1,0.9,1.7,0.9l6.8-0.2c0.4,0.4,0.7,0.9,1.1,1.3l-1.6,6.6c-0.2,0.7,0,1.4,0.5,1.9
	c0.5,0.5,1.2,0.7,1.9,0.5l6.6-1.6c0.4,0.4,0.9,0.7,1.3,1.1l-0.2,6.8c0,0.7,0.3,1.3,0.9,1.7c0.6,0.4,1.3,0.4,1.9,0.2l6.2-2.8
	c0.5,0.3,1,0.5,1.5,0.8l1.1,6.7c0.1,0.7,0.6,1.3,1.2,1.5c0.6,0.3,1.4,0.2,1.9-0.2l5.5-4c0.5,0.2,1.1,0.3,1.6,0.5l2.4,6.3
	c0.2,0.6,0.8,1.1,1.5,1.3c0.7,0.1,1.4-0.1,1.8-0.6l4.6-5c0.6,0.1,1.1,0.1,1.7,0.2l3.6,5.8c0.4,0.6,1,0.9,1.7,0.9s1.3-0.4,1.7-0.9
	l3.6-5.8c0.6,0,1.1-0.1,1.7-0.2l4.6,5c0.5,0.5,1.2,0.7,1.8,0.6c0.7-0.1,1.2-0.6,1.5-1.3l2.4-6.3c0.5-0.2,1.1-0.3,1.6-0.5l5.5,4
	c0.6,0.4,1.3,0.5,1.9,0.2c0.6-0.3,1.1-0.8,1.2-1.5l1.1-6.7c0.5-0.3,1-0.5,1.5-0.8l6.2,2.8c0.6,0.3,1.4,0.2,1.9-0.2
	c0.6-0.4,0.9-1,0.9-1.7l-0.2-6.8c0.4-0.4,0.9-0.7,1.3-1.1l6.6,1.6c0.7,0.2,1.4,0,1.9-0.5c0.5-0.5,0.7-1.2,0.5-1.9l-1.6-6.6
	c0.4-0.4,0.7-0.9,1.1-1.3l6.8,0.2c0.7,0,1.3-0.3,1.7-0.9c0.4-0.6,0.4-1.3,0.2-1.9l-2.8-6.2c0.3-0.5,0.5-1,0.8-1.5l6.7-1.1
	c0.7-0.1,1.3-0.6,1.5-1.2c0.3-0.6,0.2-1.4-0.2-1.9l-4-5.5c0.2-0.5,0.3-1.1,0.5-1.6l6.3-2.4c0.6-0.2,1.1-0.8,1.3-1.5
	c0.1-0.7-0.1-1.4-0.6-1.8l-5-4.6c0.1-0.6,0.1-1.1,0.2-1.7l5.8-3.6c0.6-0.4,0.9-1,0.9-1.7S140.3,70.7,139.7,70.3z M101.1,118.1
	c-2.2-0.5-3.6-2.6-3.1-4.9c0.5-2.2,2.6-3.6,4.8-3.1c2.2,0.5,3.6,2.6,3.1,4.8C105.5,117.2,103.3,118.6,101.1,118.1z M99.2,104.9
	c-2-0.4-4,0.8-4.4,2.9l-2,9.6c-6.3,2.9-13.3,4.5-20.7,4.5c-7.6,0-14.7-1.7-21.2-4.7l-2-9.6c-0.4-2-2.4-3.3-4.4-2.9l-8.4,1.8
	c-1.6-1.6-3-3.3-4.4-5.1h41c0.5,0,0.8-0.1,0.8-0.5V86.3c0-0.4-0.3-0.5-0.8-0.5h-12v-9.2h13c1.2,0,6.3,0.3,8,6.9
	c0.5,2,1.6,8.6,2.4,10.7c0.8,2.4,3.9,7.1,7.3,7.1h20.4c0.2,0,0.5,0,0.7-0.1c-1.4,1.9-3,3.8-4.7,5.5L99.2,104.9z M42.4,117.9
	c-2.2,0.5-4.4-0.9-4.8-3.1c-0.5-2.2,0.9-4.4,3.1-4.9c2.2-0.5,4.4,0.9,4.8,3.1C46,115.3,44.6,117.5,42.4,117.9z M26.9,54.8
	c0.9,2.1,0,4.5-2.1,5.4c-2.1,0.9-4.5,0-5.4-2.1c-0.9-2.1,0-4.5,2.1-5.4C23.5,51.8,25.9,52.8,26.9,54.8z M22.1,66.2l8.8-3.9
	c1.9-0.8,2.7-3,1.9-4.9l-1.8-4.1h7.1v32.1H23.7c-1.2-4.4-1.9-9-1.9-13.8C21.8,69.7,21.9,67.9,22.1,66.2z M60.6,63v-9.5h16.9
	c0.9,0,6.2,1,6.2,5c0,3.3-4.1,4.5-7.4,4.5L60.6,63L60.6,63z M122.2,71.6c0,1.3,0,2.5-0.1,3.7h-5.2c-0.5,0-0.7,0.3-0.7,0.8v2.4
	c0,5.6-3.1,6.8-5.9,7.1c-2.6,0.3-5.5-1.1-5.9-2.7c-1.5-8.7-4.1-10.6-8.2-13.8c5-3.2,10.3-7.9,10.3-14.3c0-6.8-4.7-11.1-7.9-13.3
	c-4.5-3-9.4-3.5-10.8-3.5H34.6c7.2-8.1,17-13.8,28.1-15.9l6.3,6.6c1.4,1.5,3.8,1.5,5.3,0.1l7-6.7c14.7,2.7,27.2,11.9,34.4,24.5
	l-4.8,10.9c-0.8,1.9,0,4.1,1.9,4.9l9.3,4.1C122.1,68.2,122.2,69.9,122.2,71.6z M69,16.6c1.6-1.6,4.2-1.5,5.8,0.1
	c1.6,1.6,1.5,4.2-0.1,5.8c-1.6,1.6-4.2,1.5-5.8-0.1C67.3,20.7,67.3,18.2,69,16.6z M116.7,55c0.9-2.1,3.3-3,5.4-2.1
	c2.1,0.9,3,3.3,2.1,5.4c-0.9,2.1-3.3,3-5.4,2.1C116.7,59.5,115.8,57.1,116.7,55z"/>
</svg>
