<?xml version="1.0" encoding="UTF-8" standalone="no"?>
<!-- Created with Inkscape (http://www.inkscape.org/) -->

<svg
   xmlns:dc="http://purl.org/dc/elements/1.1/"
   xmlns:cc="http://creativecommons.org/ns#"
   xmlns:rdf="http://www.w3.org/1999/02/22-rdf-syntax-ns#"
   xmlns:svg="http://www.w3.org/2000/svg"
   xmlns="http://www.w3.org/2000/svg"
   xmlns:sodipodi="http://sodipodi.sourceforge.net/DTD/sodipodi-0.dtd"
   xmlns:inkscape="http://www.inkscape.org/namespaces/inkscape"
   width="289.57544mm"
   height="274.45648mm"
   viewBox="0 0 289.57544 274.45648"
   version="1.1"
   id="svg8"
   inkscape:version="0.92.2 5c3e80d, 2017-08-06"
   sodipodi:docname="rust-eye.svg">
  <defs
     id="defs2" />
  <sodipodi:namedview
     id="base"
     pagecolor="#ffffff"
     bordercolor="#666666"
     borderopacity="1.0"
     inkscape:pageopacity="0.0"
     inkscape:pageshadow="2"
     inkscape:zoom="0.35886612"
     inkscape:cx="-91.449309"
     inkscape:cy="293.82495"
     inkscape:document-units="mm"
     inkscape:current-layer="layer1"
     showgrid="false"
     inkscape:measure-start="-627.57,-534.961"
     inkscape:measure-end="-642.348,-530.035"
     inkscape:window-width="1596"
     inkscape:window-height="860"
     inkscape:window-x="1366"
     inkscape:window-y="38"
     inkscape:window-maximized="0"
     fit-margin-top="5"
     fit-margin-left="5"
     fit-margin-right="5"
     fit-margin-bottom="5" />
  <metadata
     id="metadata5">
    <rdf:RDF>
      <cc:Work
         rdf:about="">
        <dc:format>image/svg+xml</dc:format>
        <dc:type
           rdf:resource="http://purl.org/dc/dcmitype/StillImage" />
        <dc:title></dc:title>
      </cc:Work>
    </rdf:RDF>
  </metadata>
  <g
     inkscape:groupmode="layer"
     id="layer9"
     inkscape:label="pad"
     transform="translate(190.57515,-220.2194)" />
  <g
     inkscape:groupmode="layer"
     id="layer3"
     inkscape:label="triangles"
     style="display:inline"
     transform="translate(190.57515,-220.2194)">
    <g
       inkscape:groupmode="layer"
       id="layer6"
       inkscape:label="outer"
       style="display:inline">
      <path
         sodipodi:type="star"
         style="display:inline;opacity:1;vector-effect:none;fill:#000000;fill-opacity:1;stroke:#ffffff;stroke-width:9;stroke-linecap:butt;stroke-linejoin:round;stroke-miterlimit:4;stroke-dasharray:none;stroke-dashoffset:0;stroke-opacity:1;paint-order:markers stroke fill"
         id="path3867"
         sodipodi:sides="3"
         sodipodi:cx="-45.787434"
         sodipodi:cy="385.93613"
         sodipodi:r1="156.21718"
         sodipodi:r2="78.108582"
         sodipodi:arg1="0.52359878"
         sodipodi:arg2="1.5707963"
         inkscape:flatsided="true"
         inkscape:rounded="0"
         inkscape:randomized="0"
         d="m 89.500611,464.04472 -270.576091,0 135.288047,-234.32577 z"
         inkscape:transform-center-y="-39.054022"
         inkscape:transform-center-x="-2.8380402e-05" />
    </g>
    <g
       inkscape:groupmode="layer"
       id="layer7"
       inkscape:label="inner"
       style="display:inline">
      <path
         inkscape:transform-center-x="-2.4609337e-05"
         inkscape:transform-center-y="-34.097727"
         d="m 72.331392,454.13203 -236.237662,0 118.118833,-204.58781 z"
         inkscape:randomized="0"
         inkscape:rounded="0"
         inkscape:flatsided="true"
         sodipodi:arg2="1.5707963"
         sodipodi:arg1="0.52359878"
         sodipodi:r2="68.19593"
         sodipodi:r1="136.39188"
         sodipodi:cy="385.9361"
         sodipodi:cx="-45.787437"
         sodipodi:sides="3"
         id="path3957"
         style="display:inline;opacity:1;vector-effect:none;fill:#cccccc;fill-opacity:1;stroke:none;stroke-width:0.27618897;stroke-linecap:butt;stroke-linejoin:miter;stroke-miterlimit:4;stroke-dasharray:none;stroke-dashoffset:0;stroke-opacity:1;paint-order:stroke fill markers"
         sodipodi:type="star" />
    </g>
    <g
       inkscape:groupmode="layer"
       id="layer8"
       inkscape:label="circle"
       style="display:inline">
      <circle
         style="opacity:1;vector-effect:none;fill:#cccccc;fill-opacity:1;stroke:#ff4141;stroke-width:0.2793234;stroke-linecap:butt;stroke-linejoin:miter;stroke-miterlimit:4;stroke-dasharray:none;stroke-dashoffset:0;stroke-opacity:1;paint-order:stroke fill markers"
         id="path3964"
         cx="-46.079742"
         cy="389.52811"
         r="87.737" />
    </g>
  </g>
  <g
     inkscape:groupmode="layer"
     id="layer2"
     inkscape:label="gear + eye"
     style="display:inline"
     transform="translate(190.57515,-220.2194)">
    <g
       inkscape:groupmode="layer"
       id="layer4"
       inkscape:label="gear"
       style="display:inline">
      <path
         id="path3769-3"
         d="m -52.062813,315.39686 a 5.8368915,5.8368915 0 0 1 11.67378,0 5.8368915,5.8368915 0 0 1 -11.67378,0 m -69.631397,52.84754 a 5.8368937,5.8368937 0 0 1 11.67378,0 5.8368937,5.8368937 0 0 1 -11.67378,0 m 139.26088,0.27258 a 5.8368904,5.8368904 0 0 1 11.67377,0 5.8368904,5.8368904 0 0 1 -11.67377,0 m -122.36428,7.99629 c 2.68553,-1.19256 3.89869,-4.3401 2.70618,-7.03132 l -2.58978,-5.85566 h 10.184498 v 45.90639 h -20.547418 a 71.862484,71.862484 0 0 1 -2.32689,-27.43227 z m 42.602852,1.12871 v -13.53112 h 24.252777 c 1.252658,0 8.845487,1.44792 8.845487,7.12515 0,4.71387 -5.823723,6.40407 -10.612682,6.40407 z m -33.111404,72.8541 a 5.836901,5.836901 0 0 1 11.67378,0 5.836901,5.836901 0 0 1 -11.67378,0 m 86.4847505,0.27255 a 5.8368912,5.8368912 0 0 1 11.6737803,0 5.8368912,5.8368912 0 0 1 -11.6737803,0 m 1.8048224,-13.23635 c -2.8752835,-0.6161 -5.7035249,1.21327 -6.3195769,4.09415 l -2.929695,13.67194 a 71.862484,71.862484 0 0 1 -59.929554,-0.28747 l -2.927796,-13.67193 c -0.616114,-2.87712 -3.444325,-4.71012 -6.317678,-4.09224 l -12.070036,2.5917 a 71.862484,71.862484 0 0 1 -6.240665,-7.35626 h 58.729454 c 0.665093,0 1.108074,-0.12003 1.108074,-0.7249 v -20.77468 c 0,-0.60476 -0.442912,-0.72493 -1.108074,-0.72493 h -17.176389 v -13.16869 h 18.5774 c 1.695862,0 9.067107,0.48479 11.424002,9.90659 0.738047,2.89777 2.358815,12.32359 3.466819,15.34155 1.10432,3.3842 5.600278,10.14506 10.391105,10.14506 h 30.322481 a 71.862484,71.862484 0 0 1 -6.6556889,7.70364 z M 25.595182,382.68096 a 71.862484,71.862484 0 0 1 0.1519,12.4757 h -7.373089 c -0.738047,0 -1.034755,0.4848 -1.034755,1.20754 v 3.38611 c 0,7.9703 -4.49412,9.70372 -8.4323181,10.14506 -3.7504577,0.42234 -7.90834467,-1.57006 -8.4211075,-3.86501 -2.2122415,-12.44379 -5.8988214,-15.10113 -11.7206974,-19.69292 7.2247297,-4.58797 14.7424709,-11.35636 14.7424709,-20.41594 0,-9.78266 -6.7064232,-15.94439 -11.2774893,-18.96615 -6.4134726,-4.22744 -13.5142676,-5.07438 -15.4298226,-5.07438 H -99.45302 a 71.862484,71.862484 0 0 1 40.204652,-22.69029 l 8.988239,9.42952 c 2.032026,2.12786 5.39742,2.2067 7.523352,0.17254 l 10.056776,-9.61918 a 71.862484,71.862484 0 0 1 49.19666,35.03822 L 9.6318359,369.7618 c -1.1887696,2.69122 0.021367,5.83876 2.7081281,7.03132 z m 17.170799,0.25126 -0.234945,-2.4039 7.091431,-6.61436 c 1.442328,-1.34465 0.903304,-4.05093 -0.94091,-4.73821 l -9.065187,-3.38989 -0.709948,-2.34001 5.65473,-7.85384 c 1.153146,-1.59632 0.09372,-4.14481 -1.847982,-4.46409 l -9.55908,-1.55496 -1.149388,-2.14659 4.017085,-8.81732 c 0.82259,-1.79538 -0.706254,-4.09224 -2.681793,-4.01712 l -9.701885,0.33785 -1.532466,-1.85919 2.229212,-9.45023 c 0.450723,-1.91933 -1.49676,-3.86873 -3.416145,-3.418 l -9.448336,2.22736 -1.8629412,-1.53245 0.3399812,-9.70188 c 0.075249,-1.96438 -2.2235865,-3.49877 -4.0152061,-2.6837 l -8.8154782,4.01897 -2.1465886,-1.15122 -1.5587172,-9.56106 c -0.3151645,-1.93813 -2.8658382,-2.99729 -4.4621919,-1.84797 l -7.859466,5.65478 -2.336249,-0.70838 -3.389883,-9.06711 c -0.687094,-1.84795 -3.395417,-2.37944 -4.736303,-0.94466 l -6.614447,7.09704 -2.403822,-0.23494 -5.108242,-8.25389 c -1.032905,-1.67144 -3.799225,-1.67144 -4.828362,0 l -5.108246,8.25389 -2.40574,0.23494 -6.61629,-7.09704 c -1.340882,-1.43478 -4.048994,-0.90329 -4.736368,0.94466 l -3.389814,9.06711 -2.338159,0.70838 -7.857597,-5.65478 c -1.596344,-1.15307 -4.148587,-0.0902 -4.464103,1.84797 l -1.558716,9.56106 -2.146579,1.15122 -8.815443,-4.01897 c -1.79163,-0.81884 -4.090313,0.71932 -4.015243,2.6837 l 0.33788,9.70188 -1.86295,1.53245 -9.4484,-2.22736 c -1.9193,-0.44717 -3.86872,1.49867 -3.41799,3.418 l 2.22545,9.45023 -1.52871,1.85919 -9.7018,-0.33785 c -1.95692,-0.0568 -3.49876,2.22167 -2.6837,4.01704 l 4.01891,8.81733 -1.15123,2.14658 -9.55906,1.55496 c -1.94187,0.31518 -2.9936,2.86777 -1.84798,4.46411 l 5.65473,7.8539 -0.70996,2.34001 -9.06702,3.38981 c -1.84052,0.68711 -2.37948,3.39357 -0.94091,4.73823 l 7.09327,6.61442 -0.23495,2.40382 -8.25202,5.10826 c -1.67146,1.0329 -1.67146,3.79922 0,4.82836 l 8.25202,5.10825 0.23495,2.4039 -7.09327,6.61619 c -1.43857,1.34097 -0.89961,4.04532 0.94091,4.73637 l 9.06702,3.3899 0.70996,2.34001 -5.65473,7.85574 c -1.14938,1.60004 -0.0923,4.15043 1.84982,4.46218 l 9.55722,1.55497 1.15123,2.15036 -4.01891,8.81356 c -0.81882,1.79161 0.72678,4.09598 2.6837,4.01711 l 9.69805,-0.33998 1.53246,1.86293 -2.22545,9.4521 c -0.45073,1.91564 1.49869,3.86122 3.41799,3.41048 l 9.44833,-2.22545 1.86302,1.52869 -0.33788,9.7038 c -0.0753,1.96439 2.223613,3.50061 4.015243,2.68178 l 8.815371,-4.01707 2.146568,1.15124 1.558799,9.55538 c 0.315867,1.94556 2.867676,2.99728 4.46404,1.85173 l 7.853892,-5.65849 2.340017,0.71171 3.389803,9.06334 c 0.687093,1.84047 3.395487,2.38326 4.736382,0.94093 l 6.616288,-7.09328 2.405732,0.24062 5.108247,8.25201 c 1.029146,1.66393 3.795456,1.6677 4.828361,0 l 5.108249,-8.25201 2.403821,-0.24062 6.614438,7.09328 c 1.340897,1.44233 4.049002,0.89954 4.736303,-0.94093 l 3.389883,-9.06334 2.340006,-0.71171 7.85573,5.65849 c 1.5963333,1.14555 4.1466554,0.0902 4.4621708,-1.85173 l 1.5587276,-9.55538 2.1465783,-1.15124 8.8154782,4.01707 c 1.7916196,0.81883 4.0865561,-0.71365 4.0152259,-2.68178 l -0.3378738,-9.7038 1.861103,-1.52869 9.448336,2.22545 c 1.919313,0.45074 3.866796,-1.49484 3.416073,-3.41048 l -2.225445,-9.4521 1.528699,-1.86293 9.701874,0.33998 c 1.956929,0.0787 3.504394,-2.2255 2.681876,-4.01711 l -4.017147,-8.81356 1.149378,-2.15036 9.559152,-1.55497 c 1.945646,-0.31161 3.001046,-2.86214 1.847972,-4.46218 l -5.65472,-7.85574 0.709876,-2.34001 9.065187,-3.3899 c 1.844203,-0.69134 2.383238,-3.3954 0.94091,-4.73637 l -7.091433,-6.61619 0.234947,-2.4039 8.252031,-5.10825 c 1.671452,-1.02914 1.673362,-3.79546 0.002,-4.82836 z"
         inkscape:connector-curvature="0"
         style="display:inline;stroke:#ffffff;stroke-width:2;stroke-miterlimit:4;stroke-dasharray:none;stroke-opacity:1" />
    </g>
    <g
       inkscape:groupmode="layer"
       id="layer5"
       inkscape:label="eye"
       style="display:inline">
      <g
         style="display:inline"
         id="g3834"
         transform="translate(121.6554,-76.804826)">
        <path
           inkscape:connector-curvature="0"
           id="path3826"
           d="m -170.53343,460.3282 c -3.94191,-0.37129 -8.52735,-1.74669 -12.52604,-3.7572 -3.80614,-1.91368 -11.83175,-7.55577 -11.83175,-8.31785 0,-0.24168 2.87696,-3.02814 4.68077,-4.53352 6.08159,-5.07543 11.88198,-8.17832 17.57202,-9.40011 1.35465,-0.29088 2.02695,-0.33899 4.73624,-0.33899 2.71134,0 3.38057,0.048 4.73624,0.33948 5.69938,1.2256 11.58219,4.37678 17.66691,9.46345 1.65279,1.38169 4.58588,4.24739 4.58588,4.48056 0,0.65448 -5.81806,4.85289 -10.37121,7.48405 -1.91072,1.10415 -5.4626,2.66388 -7.6897,3.37678 -3.69358,1.18229 -7.53614,1.58229 -11.55936,1.20335 z"
           style="opacity:1;vector-effect:none;fill:#fcfcfd;fill-opacity:1;stroke:none;stroke-width:0.16006491;stroke-linecap:butt;stroke-linejoin:miter;stroke-miterlimit:4;stroke-dasharray:none;stroke-dashoffset:0;stroke-opacity:1;paint-order:stroke fill markers"
           sodipodi:nodetypes="ccsscscssccc" />
        <path
           inkscape:connector-curvature="0"
           id="path3828"
           d="m -170.32379,454.71744 c -1.53867,-0.50486 -3.15825,-1.76792 -4.11475,-3.20896 -0.66622,-1.00369 -1.01785,-2.13712 -1.10868,-3.57368 -0.17169,-2.71542 0.39715,-4.34232 2.12043,-6.06449 1.71986,-1.71878 2.91554,-2.21374 5.345,-2.21265 2.26804,0 3.55032,0.44593 5.13432,1.7816 1.18427,0.99858 2.20283,2.64342 2.55077,4.11912 0.36844,1.56269 0.12854,3.70987 -0.56746,5.07899 -0.60902,1.19799 -1.90537,2.54248 -3.15461,3.27169 -0.27299,0.15936 -0.94309,0.44067 -1.48909,0.62515 -1.36837,0.46228 -3.6011,0.54901 -4.71593,0.18323 z"
           style="opacity:1;vector-effect:none;fill:#001b29;fill-opacity:1;stroke:none;stroke-width:0.13210396;stroke-linecap:butt;stroke-linejoin:miter;stroke-miterlimit:4;stroke-dasharray:none;stroke-dashoffset:0;stroke-opacity:1;paint-order:stroke fill markers" />
      </g>
    </g>
  </g>
  <g
     inkscape:label="Layer 1"
     inkscape:groupmode="layer"
     id="layer1"
     style="display:inline;opacity:1"
     transform="translate(190.57515,-220.2194)" />
</svg>
