<svg xmlns="http://www.w3.org/2000/svg" viewBox="0 0 280.08 113.08"><defs><style>.cls-1{isolation:isolate;}</style></defs><title>Ativo 1</title><g id="Camada_2" data-name="Camada 2"><g id="Camada_1-2" data-name="Camada 1"><path d="M52.71,17.91c-2.61,0-4.21,1.93-4.21,5.26,0,3.07,1.42,5.42,4.17,5.42S57,26.47,57,23.09C57,19.52,55.1,17.91,52.71,17.91Z"/><path d="M122.06,26.83a1.85,1.85,0,0,0,2.08,2c1.81,0,3.74-1.31,3.85-4.24a18,18,0,0,0-2.55-.23C123.63,24.39,122.06,24.89,122.06,26.83Z"/><path d="M0,0V40.45H141.38V0ZM41.24,32.21H33.78V22.11c0-3.07-1.14-4.23-3.15-4.23-2.43,0-3.53,1.72-3.53,4.2v6.2h2.35v3.93H22.39V22.11c0-3.06-1.14-4.23-3.15-4.23-2.43,0-3.53,1.72-3.53,4.2v6.2h3.53v3.93h-11V28.28h2.36V18.05H8.25V14.53h7.46V17a6.07,6.07,0,0,1,5.42-3,5.73,5.73,0,0,1,5.77,3.81A6,6,0,0,1,32.77,14C36,14,38.93,16,38.93,20.15v8.14h2.36v3.93Zm11.27.23c-5.46,0-9.23-3.34-9.23-9,0-5.19,3.14-9.47,9.5-9.47s9.46,4.28,9.46,9.23c0,5.66-4.07,9.23-9.73,9.23ZM81,32.21H65.59l-.51-2.83,9.74-11.33H69.28l-.79,2.83-3.65-.26.63-6.09H81l.4,2.63L71.56,28.28h5.73l.83-2.79,4,.43Zm10.1,0H86V25.55h5.11Zm0-11.4H86V14.53h5.11Zm3.34,11.4,7.62-27.1h5l-7.66,27.1Zm10.25,0,7.66-27.1h5l-7.66,27.1Zm27.18.23A3.61,3.61,0,0,1,128,28.91a6.43,6.43,0,0,1-5.7,3.53c-2.55,0-5.45-1.37-5.45-5.06,0-4.37,4.2-5.38,8.25-5.38a21.59,21.59,0,0,1,2.9.15V21.6c0-1.81,0-4-2.9-4a5.38,5.38,0,0,0-2.71.52l-.59,2-4-.43.71-4.09A17.13,17.13,0,0,1,126.12,14c3.81,0,7.07,2,7.07,6v7.7c0,1,.35,1.37,1.17,1.37a2.45,2.45,0,0,0,.71-.11l0,2.67a7.72,7.72,0,0,1-3.23.78Z"/><g class="cls-1"><g class="cls-1"><path d="M19.14,79.46,13.77,69.14H10.11v5.57H13v4.75H1.62V74.71H4.54V57.15H1.62V52.41H13.86c6.7,0,10.44,2.75,10.44,8.2A7.58,7.58,0,0,1,19.14,68l3.66,6.74h3.25v4.75ZM12.86,57.15H10.11v7.58h2.66c4.25,0,5.54-1.42,5.54-4S16.94,57.15,12.86,57.15Z"/><path d="M42,79.46V76.59a6.58,6.58,0,0,1-6,3.24c-3.54,0-6.58-2-6.58-6.49V64.73H26.93v-4h7.86V71.26c0,3.24,1.08,4.49,3.2,4.49,2.58,0,4-1.83,4-4.45V64.73H39v-4H47.4V75.42h2.7v4Z"/><path d="M59.88,79.87a17.61,17.61,0,0,1-8-1.83l.75-5.24,4.16.46v2.33a9.86,9.86,0,0,0,2.83.37c2,0,3.79-.66,3.79-2,0-3.2-11.32-.37-11.32-7.82,0-4.62,4.41-5.82,8.24-5.82a14.68,14.68,0,0,1,7,1.7l.46,4.79-4.16.45-.33-2.62a9.74,9.74,0,0,0-3-.45c-1.37,0-2.49.54-2.49,1.79,0,3.24,10.94.49,10.94,7.73C68.79,77.88,65.13,79.87,59.88,79.87Z"/><path d="M79.69,79.87c-4.16,0-7-2.16-7-6V64.52H70V60.69H72.7V55h5.37v5.7h6.74v3.83H78.07v8.4c0,1.79.92,2.46,2.25,2.46.66,0,2.12-.17,2.45-3l3.91,1.21C86.14,78,83.6,79.87,79.69,79.87Z"/></g><g class="cls-1"><path d="M112.65,79.46l-5.37-10.32h-3.66v5.57h2.92v4.75H95.13V74.71h2.92V57.15H95.13V52.41h12.24c6.7,0,10.44,2.75,10.44,8.2A7.58,7.58,0,0,1,112.65,68l3.66,6.74h3.25v4.75Zm-6.28-22.31h-2.75v7.58h2.67c4.24,0,5.53-1.42,5.53-4S110.45,57.15,106.37,57.15Z"/></g><g class="cls-1"><path d="M130,79.87c-5.79,0-9.78-3.53-9.78-9.57,0-5.49,3.33-10,10.07-10s10,4.54,10,9.82C140.29,76,136,79.87,130,79.87Zm.21-15.48c-2.75,0-4.46,2.08-4.46,5.62,0,3.21,1.5,5.74,4.41,5.74s4.62-2.24,4.62-5.82C134.75,66.1,132.71,64.39,130.18,64.39Z"/><path d="M152,60.32c4,0,7.45,2.08,7.45,6.36v8.16c0,1.08.42,1.45,1.29,1.45a2.92,2.92,0,0,0,.79-.12l0,2.83a7.25,7.25,0,0,1-3.37.87,3.82,3.82,0,0,1-4.12-3.7v0a6.79,6.79,0,0,1-6,3.74c-2.7,0-5.78-1.45-5.78-5.37,0-4.61,4.45-5.7,8.73-5.7a25.43,25.43,0,0,1,3.08.17v-.62c0-1.92,0-4.21-3.08-4.21a5.81,5.81,0,0,0-2.87.55l-.7,2.66-4.29-.46L144,62A18.06,18.06,0,0,1,152,60.32Zm2.08,11.23a20.53,20.53,0,0,0-2.7-.25c-1.92,0-3.58.54-3.58,2.58A2,2,0,0,0,150,76c1.87,0,3.82-1.29,4.07-4.24Z"/><path d="M177.45,79.46V76A6.67,6.67,0,0,1,171,79.87c-4.91,0-7.95-3.62-7.95-9.44,0-5.58,2.75-10.11,8.37-10.11,3.08,0,4.95,1.33,6,3.24V54.91h-3.74V50.83h9.11V75.42h2.5v4Zm0-9.95c0-3.12-1.83-5-4.28-5s-4.5,1.71-4.5,5.53c0,3.58,1.91,5.54,4.2,5.54,2.83,0,4.58-2.87,4.58-5.66Z"/><path d="M195.1,79.87a17.55,17.55,0,0,1-8-1.83l.74-5.24,4.17.46v2.33a9.78,9.78,0,0,0,2.83.37c2,0,3.78-.66,3.78-2,0-3.2-11.32-.37-11.32-7.82,0-4.62,4.41-5.82,8.24-5.82a14.68,14.68,0,0,1,7,1.7l.46,4.79-4.16.45-.33-2.62a9.74,9.74,0,0,0-3-.45c-1.37,0-2.49.54-2.49,1.79,0,3.24,10.94.49,10.94,7.73C204,77.88,200.34,79.87,195.1,79.87Z"/><path d="M218.28,79.46v-4h2.49V68.89c0-3.25-1.16-4.5-3.28-4.5-2.46,0-3.83,1.67-4,4.08v7H216v4H205.67v-4h2.5V54.91h-2.5V50.83h7.86V63.56a6.62,6.62,0,0,1,6-3.24c3.53,0,6.57,2,6.57,6.49v8.61h2.5v4Z"/></g><g class="cls-1"><path d="M238.25,79.87c-5.78,0-9.77-3.53-9.77-9.57,0-5.49,3.32-10,10.06-10s10,4.54,10,9.82C248.57,76,244.25,79.87,238.25,79.87Zm.21-15.48c-2.74,0-4.45,2.08-4.45,5.62,0,3.21,1.5,5.74,4.41,5.74S243,73.51,243,69.93C243,66.1,241,64.39,238.46,64.39Z"/></g><g class="cls-1"><path d="M278.37,64.73l-5.08,14.73h-4l-4.87-11.24h-.25l-4.41,11.24H256l-5.2-14.73h-1.7v-4h10v4h-2.58l2.29,7.32H259l4.41-11.36h3.21l5.11,11.19H272l1.54-7.15h-2.45v-4h9v4Z"/></g><g class="cls-1"><path d="M11.06,112.76H1.34v-2.05H4V94H1.34V92H10.9c4.22,0,6.27,2,6.27,5a4.45,4.45,0,0,1-3.58,4.47v.13A5,5,0,0,1,18,106.88C18,110.17,15.66,112.76,11.06,112.76ZM10.52,94H6.3v7h4.12c2.46,0,4.25-1.25,4.25-3.55C14.67,94.89,13.14,94,10.52,94Zm.89,9H6.3v7.73h4.34c3,0,4.9-1.18,4.9-4C15.54,104.41,14.13,103,11.41,103Z"/><path d="M30.82,99l.54,3.58-1.82.23L29,100.39a3,3,0,0,0-1.08-.2c-1.66,0-2.91,1.54-2.91,3.74v7h3.29v1.82h-8v-1.82h2.49V100.35H20.2V98.53h4.67v2.56a3.86,3.86,0,0,1,3.52-2.81A3.54,3.54,0,0,1,30.82,99Z"/><path d="M40.34,98.24c3.3,0,5.09,1.57,5.09,4.77v6.77c0,1.06.38,1.54,1.21,1.54a2.73,2.73,0,0,0,1-.19l0,1.47a3.85,3.85,0,0,1-1.85.48c-1.66,0-2.56-1.12-2.59-2.88v-.06a5.66,5.66,0,0,1-4.86,2.94c-1.89,0-4.32-1-4.32-4,0-3.58,3.46-4.38,6.65-4.38.87,0,1.76.07,2.53.13v-1.28c0-2-.67-3.45-3.23-3.45a6.31,6.31,0,0,0-2.75.57l-.54,2.47-1.86-.23.51-3.29A8.78,8.78,0,0,1,40.34,98.24Zm2.85,8.09c-.8-.06-1.7-.16-2.65-.16-2.11,0-4.19.45-4.19,2.66A2.35,2.35,0,0,0,39,111.22a4.17,4.17,0,0,0,4.19-3.8Z"/><path d="M54.89,113.08a10.73,10.73,0,0,1-5.4-1.41l.44-3.23,1.79.19-.09,1.89a7.16,7.16,0,0,0,3.16.7c2,0,3.84-.76,3.84-2.39,0-3.9-8.92-.93-8.92-6.46,0-3,2.69-4.13,5.27-4.13a10,10,0,0,1,5,1.32l.35,3.32-1.85.22-.35-2.3a6,6,0,0,0-2.91-.7c-1.79,0-3.07.64-3.07,2.11,0,3.71,8.82.77,8.82,6.42C60.93,111.41,58.31,113.08,54.89,113.08Z"/><path d="M63.26,112.76v-1.82h2.5V100.35H63.2V98.53H68v12.41h2.49v1.82ZM65.53,92H68v2.91H65.53Z"/><path d="M71.77,112.76v-1.82h2.49V92.59H71.74V90.76H76.5v20.18H79v1.82Z"/><path d="M95,95.78c4.19,0,5.79,2.62,5.79,5,0,4.41-5.89,7.86-9.37,10h8.31l.29-2.56,2,.16-.35,4.45h-13l-.26-1.82c6.08-4.1,9.91-6.78,9.91-10,0-2-1.37-3.19-3.8-3.19a9.38,9.38,0,0,0-3.39.73l-.51,2.4-1.86-.22.55-3.52A12.23,12.23,0,0,1,95,95.78Z"/><path d="M112.5,113.08c-5.06,0-7.65-3.36-7.65-8.51s2.66-8.79,7.77-8.79,7.64,3.81,7.64,8.7C120.26,109.75,117.48,113.08,112.5,113.08Zm.09-15.22c-3.52,0-5.24,2.37-5.24,6.55s1.76,6.59,5.21,6.59,5.24-2.3,5.24-6.62C117.8,100.35,116.17,97.86,112.59,97.86Z"/><path d="M123.43,112.76v-2.05h3.9V98.15h-3.9V96.1h6.26v14.61h3.74v2.05Z"/><path d="M142.51,113.08c-4.09,0-7-1.86-7-5.44,0-3.13,2.34-4.47,4.86-5.53-2.3-1.12-4.31-2.52-4.31-5.14,0-3.11,2.71-5.31,6.58-5.31s6.59,2,6.59,5.18c0,2.68-2.11,3.93-4.42,4.89,2.63,1.21,5.09,2.72,5.09,5.82C149.9,111,146.73,113.08,142.51,113.08Zm-.44-10.2c-2.37,1-4.22,2.05-4.22,4.44s2,3.78,4.73,3.78,4.86-1.25,4.86-3.46C147.44,105.18,144.78,104.09,142.07,102.88Zm.57-9.24c-2.36,0-4.12,1.15-4.12,3.07,0,2.11,2.11,3.16,4.5,4.25,2.37-1,3.84-2,3.84-4C146.86,94.7,144.94,93.64,142.64,93.64Z"/></g></g></g></g></svg>